<svg width="22" height="23" viewBox="0 0 22 23" fill="none" xmlns="http://www.w3.org/2000/svg">
<path fill-rule="evenodd" clip-rule="evenodd" d="M11.267 2.18627C12.1504 1.20795 13.6663 0.456671 14.9632 0.375488C15.1806 1.71293 14.58 3.02286 13.7864 3.94888C12.938 4.94371 11.4738 5.71288 10.0567 5.67298C9.79827 4.39195 10.4612 3.07377 11.267 2.18627ZM16.1123 5.3474C17.8384 5.3474 19.6661 6.19414 20.9667 7.6532C16.703 9.75727 17.3938 15.2384 21.7019 16.7059C21.1096 17.888 20.8253 18.4151 20.0615 19.4621C18.996 20.9226 17.4954 22.7425 15.6328 22.7553C14.8671 22.7626 14.3648 22.5552 13.8231 22.3317C13.1954 22.0725 12.5149 21.7917 11.3104 21.7978C10.1125 21.8031 9.42106 22.0805 8.78472 22.3358C8.22912 22.5587 7.71553 22.7648 6.9435 22.7582C5.08243 22.7439 3.65963 21.1016 2.59411 19.6411C-0.383291 15.5594 -0.697705 10.7674 1.13955 8.21865C2.44643 6.40867 4.50759 5.35024 6.4433 5.35024C7.47497 5.35024 8.30645 5.61696 9.09881 5.87114C9.81997 6.10248 10.5087 6.32342 11.2865 6.32342C12.0063 6.32342 12.598 6.12171 13.2435 5.90169C14.0178 5.63772 14.8695 5.3474 16.1123 5.3474Z" fill="#1C4A36"/>
</svg>
