<svg width="19" height="20" viewBox="0 0 19 20" fill="none" xmlns="http://www.w3.org/2000/svg">
<path id="Path" d="M17.6128 0.518463H1.30378C0.744612 0.518463 0.291626 0.999426 0.291626 1.59313V18.9102C0.291626 19.5031 0.744612 19.9841 1.30378 19.9841H10.0847V12.446H7.69524V9.50833H10.0847V7.34197C10.0847 4.82766 11.5307 3.45858 13.6436 3.45858C14.6558 3.45858 15.5251 3.53888 15.7787 3.57456V6.20242L14.3136 6.20323C13.1647 6.20323 12.9424 6.78315 12.9424 7.63314V9.50914H15.6825L15.3257 12.4468H12.9424V19.9841H17.6143C18.172 19.9841 18.625 19.5031 18.625 18.9094V1.59313C18.625 0.999426 18.172 0.518463 17.6128 0.518463Z" fill="white"/>
</svg>
