<svg width="19" height="23" viewBox="0 0 19 23" fill="none" xmlns="http://www.w3.org/2000/svg">
<path fill-rule="evenodd" clip-rule="evenodd" d="M1.18582 0.49735C1.73945 0.213941 2.37425 0.244383 2.90689 0.584817L13.5035 7.13667L10.4684 10.3742L1.18582 0.49735ZM0.152863 2.2691C0.152863 1.96768 0.215858 1.67484 0.332965 1.41158L9.61351 11.2863L0.334581 21.185C0.216262 20.9274 0.152863 20.6388 0.152863 20.3361V2.2691ZM10.4697 12.197L1.20206 22.0837C1.44798 22.2046 1.70966 22.2574 1.97093 22.2574C2.29358 22.2574 2.61542 22.1755 2.90698 21.9894L13.5056 15.4277L10.4697 12.197ZM17.528 9.62485C17.5316 9.627 17.5357 9.62957 17.5393 9.63214C18.0865 9.98458 18.4132 10.6011 18.4132 11.2811C18.4132 11.9612 18.0865 12.5777 17.5393 12.9306L14.5878 14.7575L11.3241 11.285L14.5858 7.80563L17.528 9.62485Z" fill="#1C4A36"/>
</svg>
