<svg width="19" height="20" viewBox="0 0 19 20" fill="none" xmlns="http://www.w3.org/2000/svg">
<path id="Shape" fill-rule="evenodd" clip-rule="evenodd" d="M9.7917 0.518463C7.30218 0.518463 6.99052 0.529818 6.01274 0.57686C2.68371 0.739073 0.833572 2.70023 0.680794 6.23811C0.635725 7.27709 0.625031 7.608 0.625031 10.2513C0.625031 12.8945 0.635725 13.2263 0.680031 14.2644C0.832808 17.7991 2.67989 19.7635 6.01197 19.9257C6.99052 19.9727 7.30218 19.9841 9.7917 19.9841C12.2812 19.9841 12.5936 19.9727 13.5714 19.9257C16.8974 19.7635 18.7521 17.8023 18.9026 14.2644C18.9477 13.2263 18.9584 12.8945 18.9584 10.2513C18.9584 7.608 18.9477 7.27709 18.9034 6.23892C18.7536 2.70753 16.9043 0.739884 13.5722 0.577671C12.5936 0.529818 12.2812 0.518463 9.7917 0.518463ZM9.79166 2.27297C12.2392 2.27297 12.5294 2.2827 13.4965 2.32974C15.9807 2.44978 17.141 3.70125 17.2541 6.31938C17.2984 7.34538 17.3068 7.65358 17.3068 10.2522C17.3068 12.8517 17.2976 13.1591 17.2541 14.1851C17.1403 16.8008 15.983 18.0547 13.4965 18.1747C12.5294 18.2218 12.2407 18.2315 9.79166 18.2315C7.34416 18.2315 7.05388 18.2218 6.08756 18.1747C3.59728 18.0539 2.44305 16.7967 2.32999 14.1843C2.28569 13.1583 2.27652 12.8509 2.27652 10.2514C2.27652 7.65277 2.28645 7.34538 2.32999 6.31857C2.44381 3.70125 3.6011 2.44897 6.08756 2.32893C7.05464 2.2827 7.34416 2.27297 9.79166 2.27297ZM5.08463 10.2512C5.08463 7.49117 7.19219 5.25344 9.79171 5.25344C12.3912 5.25344 14.4988 7.49117 14.4988 10.2512C14.4988 13.0121 12.3912 15.2498 9.79171 15.2498C7.19219 15.2498 5.08463 13.0113 5.08463 10.2512ZM9.79167 13.4957C8.10424 13.4957 6.73611 12.0439 6.73611 10.2514C6.73611 8.4598 8.10424 7.00718 9.79167 7.00718C11.4791 7.00718 12.8472 8.4598 12.8472 10.2514C12.8472 12.0439 11.4791 13.4957 9.79167 13.4957ZM13.5844 5.0565C13.5844 4.41171 14.0771 3.88857 14.6851 3.88857C15.2924 3.88857 15.7844 4.41171 15.7844 5.0565C15.7844 5.7013 15.2924 6.22444 14.6851 6.22444C14.0771 6.22444 13.5844 5.7013 13.5844 5.0565Z" fill="white"/>
</svg>
