<svg width="51" height="48" viewBox="0 0 51 48" fill="none" xmlns="http://www.w3.org/2000/svg">
<g clip-path="url(#clip0_8_129)">
<path fill-rule="evenodd" clip-rule="evenodd" d="M15.9111 0.000640869H50.9994C50.9996 0.000640869 50.9996 0.000640869 50.9997 0.0007742L50.9999 0.00104086L50.9994 33.0249C50.9994 41.2953 43.876 47.9997 35.0888 47.9997H0.000424992L0.000124477 47.9996L0 47.9993L0.000424992 14.9754C0.000424992 6.70504 7.12385 0.000640869 15.9111 0.000640869Z" fill="#20563F"/>
<path fill-rule="evenodd" clip-rule="evenodd" d="M28.3814 39.5822C19.2145 39.5822 11.7833 32.6059 11.7833 24.0003C11.7833 15.3947 19.2145 8.41849 28.3814 8.41849C22.8456 11.9008 19.5235 17.7446 19.5235 24.0003C19.5235 30.256 22.8456 36.0999 28.3814 39.5822Z" fill="white"/>
<path fill-rule="evenodd" clip-rule="evenodd" d="M22.5333 22.2479H28.8733L30.8324 16.5769L32.7915 22.2479H39.1314L34.0023 25.7528L35.9615 31.4238L30.8324 27.9189L25.7033 31.4238L27.6626 25.7528L22.5333 22.2479Z" fill="#F1C232"/>
</g>
<defs>
<clipPath id="clip0_8_129">
<rect width="51" height="48" fill="white"/>
</clipPath>
</defs>
</svg>
