<svg width="20" height="17" viewBox="0 0 20 17" fill="none" xmlns="http://www.w3.org/2000/svg">
<path id="Path" d="M19.2916 2.2147C18.6171 2.53264 17.8922 2.74676 17.1314 2.84328C17.9082 2.34934 18.5048 1.56666 18.7852 0.633934C18.0587 1.09138 17.2536 1.42391 16.3965 1.60316C15.7113 0.826968 14.7328 0.341949 13.6511 0.341949C11.2227 0.341949 9.43824 2.74758 9.98672 5.24485C6.86165 5.07858 4.09026 3.48889 2.23477 1.07272C1.24935 2.86761 1.72373 5.21565 3.39817 6.40468C2.78248 6.38359 2.20192 6.20434 1.69547 5.90506C1.65422 7.7551 2.90317 9.48592 4.71206 9.87118C4.18269 10.0237 3.6029 10.0593 3.01317 9.93931C3.49137 11.5258 4.88012 12.6799 6.52706 12.7123C4.94581 14.0287 2.95359 14.6167 0.958313 14.3669C2.62283 15.5 4.60054 16.161 6.72415 16.161C13.7076 16.161 17.6531 9.89875 17.4148 4.28211C18.1496 3.71842 18.7875 3.01523 19.2916 2.2147Z" fill="white"/>
</svg>
